<?xml version="1.0" encoding="utf-8"?>
<!-- Generator: Adobe Illustrator 27.7.0, SVG Export Plug-In . SVG Version: 6.00 Build 0)  -->
<svg version="1.1" id="레이어_1" xmlns="http://www.w3.org/2000/svg" xmlns:xlink="http://www.w3.org/1999/xlink" x="0px"
	 y="0px" viewBox="0 0 177.7 25" style="enable-background:new 0 0 177.7 25;" xml:space="preserve">
<style type="text/css">
	.st0{fill:#E83534;}
</style>
<path class="st0" d="M0.8,0.8L0,5.9h5.1L2.2,24.2h6.1l2.9-18.3h5.1l0.8-5.2H0.8z"/>
<path class="st0" d="M19.6,0.8l-3.7,23.4h13.4l0.8-5.2h-7.3l0.6-4h6.9l0.8-5.2h-6.9l0.6-3.9h7.3L33,0.8L19.6,0.8z"/>
<path class="st0" d="M36.5,0.8l-3.7,23.4h13.5l0.8-5.2h-7.4l2.9-18.3H36.5z"/>
<g>
	<g>
		<path class="st0" d="M66.7,8.6C65.7,7,63.8,6,61.8,6.1c-3.7,0.1-6.8,2.8-7.3,6.5c-0.6,3.7,1.5,6.4,5.3,6.4c2.1-0.1,4.2-1,5.6-2.5
			l-1.2,7.3c-1.8,0.6-3.7,1-5.6,1.1c-6.2,0-11.8-4.6-10.6-12.3c1.1-6.6,6.2-12.4,14.3-12.4c1.9,0,3.7,0.4,5.4,1.2L66.7,8.6z"/>
		<path class="st0" d="M107,0.5l-7.7,17.8L97.5,0.8h-4.8c2.8,3.6,4.3,8,4.3,12.5c0,3.7-0.7,7.4-2.1,10.9h5.3c0.2-0.5,7-16.4,7-16.4
			s2.5,15.8,2.6,16.5h3.2c0.2-0.5,12.3-23.5,12.3-23.5h-4.2l-8.6,17.4l-2.6-17.7H107z"/>
		<path class="st0" d="M131.7,0.7L118,24.2h4.3l3.2-5.4h9.6l1.2,5.4h4.5l-5.7-23.5H131.7z M134.5,16h-7.6l0.3-0.7l5.2-9.6L134.5,16z
			"/>
		<path class="st0" d="M146.6,0.8l-4.1,23.4h4.1l1.8-9.9h0.7l4.8,9.9h5.1L153.4,14l0.6-0.1c3.1-0.6,5.5-3,6-6.1
			c0.1-0.5,0.1-1,0.1-1.5c0-1.2-0.3-2.5-1-3.5c-1.1-1.3-3.2-2-6.1-2L146.6,0.8z M149,11.5l1.3-7.9h1.1c1.4,0,3.1,0.1,4,1.2
			c0.6,1,0.8,2.1,0.5,3.2c-0.6,3.6-3.6,4-5.8,4h-1.2L149,11.5z"/>
		<path class="st0" d="M165.2,0.8l-4.1,23.4h12.4l0.5-3.1h-8.3l1.3-7.7h8l0.5-3.1h-8l1.1-6.5h8.3l0.5-3.1L165.2,0.8z"/>
		<path class="st0" d="M91.6,3.4c1,2.9,0.9,6-0.3,8.8c-1.9,4.4-6.3,7.3-11.1,7.1c-4-0.1-6.3-3.1-5.7-7.1c0.8-3.6,4-6.1,7.6-6.2
			c3-0.1,5.5,2.2,5.7,5.2c0,0.3,0,0.7,0,1c-0.1,0.5-0.2,1-0.4,1.5c2.1-1.4,3.4-3.6,3.5-6.1C91.3,3.3,88.5,0,83,0
			c-8.1,0-13.8,5.4-14.9,12.1C66.9,19.6,72,25.6,79.8,25c6.3-0.3,11.8-4.6,13.6-10.7C94.6,9.8,93.7,5.8,91.6,3.4"/>
	</g>
</g>
</svg>
